<?xml version="1.0" encoding="UTF-8"?>
<svg id="Layer_2" data-name="Layer 2" xmlns="http://www.w3.org/2000/svg" viewBox="0 0 2834.65 882.14">
  <defs>
    <style>
      .cls-1 {
        fill: #29003c;
      }
    </style>
  </defs>
  <g id="Layer_1-2" data-name="Layer 1">
    <g>
      <path class="cls-1" d="M177.72,29.69c-49.63,19.75-87.99,47.98-115.35,84.82-27.23,36.72-40.91,80.94-40.91,132.68s12.34,93.67,36.89,126.02c24.68,32.23,59.95,58.28,105.96,78.16,46.14,19.75,101.26,36.11,165.64,49.08l30.86,6.06c40.23,8,74.43,16.72,102.61,26.05,28.16,9.21,49.62,21.21,64.37,35.75,14.76,14.54,22.14,33.44,22.14,56.95,0,33.93-14.89,61.8-44.94,83.61-29.91,21.81-75.24,32.72-136.14,32.72s-107.3-12.72-142.17-38.17c-34.88-25.45-52.31-63.61-52.31-114.51v-19.55c0-7.94-6.34-14.37-14.17-14.37H14.16c-7.82,0-14.16,6.44-14.16,14.37v19.55c0,61.32,15.69,113.9,46.94,157.53,31.38,43.62,74.71,77.07,130.1,100.57,55.53,23.39,119.37,35.14,191.8,35.14s135.33-11.15,188.45-33.32c53.25-22.3,94.42-52.95,123.4-92.09,29.1-39.26,43.59-84.7,43.59-136.32s-13.82-94.15-41.58-127.23c-27.63-33.21-66.4-59.86-116.03-79.98-49.63-20.23-107.97-36.84-175.03-49.68l-30.85-6.06c-37.56-7.27-68.41-15.75-92.55-25.45-24.14-9.7-42.25-21.81-54.32-36.35-12.07-14.54-18.11-32.35-18.11-53.31,0-31.51,12.75-56.35,38.23-74.53,25.49-18.17,65.05-27.26,118.7-27.26,35.82,0,66.67,4.6,92.55,13.94,26.02,9.21,45.88,23.75,59.69,43.62,13.95,19.75,20.79,45.8,20.79,78.16v21.98c0,7.94,6.34,14.37,14.17,14.37h146.04c7.82,0,14.16-6.44,14.16-14.37v-21.98c0-61.44-14.89-112.57-44.93-153.29-29.91-40.83-71.08-71.49-123.4-92.09C479.5,10.3,419.81,0,352.74,0s-125.4,9.82-175.03,29.69"/>
      <path class="cls-1" d="M783.68,19.07c-7.85,0-14.21,6.43-14.21,14.37l-.03,677.18c0,1.44,0,2.87.03,4.31.82,44.28,14.54,79.7,41.02,106.62,27.33,27.64,63.02,41.54,107.06,41.54h90.86c7.86,0,14.22-6.44,14.22-14.37v-112.84c0-7.94-6.37-14.38-14.22-14.38h-31.6c-24.42,0-36.94-12.79-37.68-38.34V33.44c0-7.94-6.37-14.37-14.21-14.37h-141.23Z"/>
      <path class="cls-1" d="M1809.59,77.51c-7.86,0-14.22,6.44-14.22,14.37v88.81c0,3.97-3.18,7.19-7.11,7.19h-68.65c-7.86,0-14.22,6.44-14.22,14.37v112.83c0,7.94,6.36,14.37,14.22,14.37h67.45c3.92,0,7.11,3.22,7.11,7.19v373.98c0,46.28,13.73,83.17,41.07,110.95,27.34,27.63,63.02,41.52,107.05,41.52h210.49c7.86,0,14.22-6.44,14.22-14.37v-112.83c0-7.94-6.37-14.38-14.22-14.38h-151.24c-25.18,0-37.7-13.61-37.7-40.84v-344.04c0-3.97,3.18-7.19,7.11-7.19h183.13c7.86,0,14.22-6.43,14.22-14.37v-112.83c0-7.94-6.37-14.37-14.22-14.37h-181.93c-3.92,0-7.11-3.22-7.11-7.18v-88.81c0-7.93-6.37-14.37-14.22-14.37h-141.23Z"/>
      <path class="cls-1" d="M2383.9,353.95c27.83-23.69,65.4-35.4,112.71-35.4s82.38,11.71,110.62,35.4c28.25,23.55,44.25,54.86,48.01,93.93h-322.82c6.54-39.07,23.66-70.38,51.48-93.93M2318.41,211.69c-51.9,28.59-92.25,68.88-121.06,121.16-28.81,52.14-43.14,113.67-43.14,184.46v16.34c0,70.79,14.61,132.18,43.83,184.46,29.22,52.14,69.99,92.57,122.45,121.16,52.46,28.59,112.99,42.88,181.58,42.88,63.04,0,115.08-9.8,155.85-29.27,40.77-19.6,73.47-43.15,98.1-70.79,24.63-27.77,39.49-54.27,50.42-78.84,13.78-30.99,18.92-57.54,20.48-67.44.34-2.18-1.33-4.14-3.51-4.14h-153.26c-.67,0-1.28.38-1.57.99-12.09,24.93-29.47,47.74-52.4,68.43-23.24,20.83-59.41,31.31-108.53,31.31s-89.06-14.56-122.45-43.56c-33.4-29.13-51.07-66.71-52.88-112.99h498.77c1.96,0,3.55-1.61,3.55-3.59v-54.94c0-69.02-13.92-129.6-41.75-181.74-27.83-52.28-66.79-93.11-116.88-122.52-50.09-29.55-108.95-44.24-176.72-44.24s-128.99,14.29-180.89,42.88"/>
      <path class="cls-1" d="M1246.1,720.14c-19.77-15.52-29.65-35.4-29.65-59.9s9.46-43.56,28.24-57.18c18.78-13.61,44.76-20.42,77.66-20.42h179.31v13.62c0,44.38-15.81,80.05-47.3,106.86-31.49,26.68-72.3,40.16-122.14,40.16-37.69,0-66.36-7.76-86.12-23.14M1369.5,168.94c-58.03.41-107.31,9.26-148.11,26.41-41.94,17.7-75.26,40.84-100.25,69.43-21.78,24.91-38.29,52-49.66,81.43-7.33,15.57-12.29,35.06-15.18,48.85-1.87,8.95,4.86,17.36,13.91,17.36h160.19l.16.05c6.64-30.9,20.76-56.09,42.36-75.55,21.61-19.6,54.64-29.27,98.84-29.27s78.08,10.21,98.83,30.63c20.76,20.42,31.06,46.42,31.06,78.27v38.12h-192.02c-52.66,0-99.54,7.9-140.49,23.82-40.94,15.79-73,39.48-96.01,70.79-23.02,31.31-34.59,70.11-34.59,116.39s11.58,85.49,34.59,117.76c23.01,32.13,54.36,56.63,93.89,73.51,39.53,16.75,84.29,25.19,134.14,25.19s87.54-6.81,115.78-20.42c28.24-13.61,48.99-29.27,62.13-46.96,13.13-17.7,21.6-31.99,25.41-42.89h26.83v1.36c0,27.23,11.3,49.01,33.89,65.34,22.59,16.34,51.25,24.5,86.13,24.5h97.27c7.86,0,14.22-6.44,14.22-14.37v-112.83c0-7.94-6.37-14.37-14.22-14.37h-35.15c-26.4,0-39.53-13.62-39.53-40.84v-251.85c0-84.4-26.83-148.93-80.48-193.31-6.35-5.31-13.13-10.35-20.05-14.97-51.26-34.57-117.62-51.73-198.8-51.73-1.7,0-3.39,0-5.08.14"/>
    </g>
  </g>
</svg>